%TF.GenerationSoftware,KiCad,Pcbnew,5.1.4*%
%TF.CreationDate,2019-09-29T12:18:45+02:00*%
%TF.ProjectId,m5stickc-dallas-hat-pcb,6d357374-6963-46b6-932d-64616c6c6173,rev?*%
%TF.SameCoordinates,PX8eeaea0PY695f190*%
%TF.FileFunction,Copper,L1,Top*%
%TF.FilePolarity,Positive*%
%FSLAX46Y46*%
G04 Gerber Fmt 4.6, Leading zero omitted, Abs format (unit mm)*
G04 Created by KiCad (PCBNEW 5.1.4) date 2019-09-29 12:18:45*
%MOMM*%
%LPD*%
G04 APERTURE LIST*
%ADD10R,1.500000X1.050000*%
%ADD11O,1.500000X1.050000*%
%ADD12O,1.700000X1.700000*%
%ADD13R,1.700000X1.700000*%
%ADD14C,1.600000*%
%ADD15O,1.600000X1.600000*%
%ADD16C,0.350000*%
G04 APERTURE END LIST*
D10*
X2540000Y11430000D03*
D11*
X2540000Y8890000D03*
X2540000Y10160000D03*
D12*
X11430000Y1270000D03*
X11430000Y3810000D03*
X11430000Y6350000D03*
X11430000Y8890000D03*
X11430000Y11430000D03*
X11430000Y13970000D03*
X11430000Y16510000D03*
D13*
X11430000Y19050000D03*
D12*
X2540000Y16510000D03*
X5080000Y16510000D03*
D13*
X7620000Y16510000D03*
D14*
X7620000Y10160000D03*
D15*
X7620000Y2540000D03*
D16*
X2540000Y16510000D02*
X2540000Y13970000D01*
X2540000Y13970000D02*
X1270000Y12700000D01*
X1270000Y12700000D02*
X1270000Y8890000D01*
X1270000Y8890000D02*
X2540000Y8890000D01*
X2540000Y8890000D02*
X3810000Y8890000D01*
X3810000Y8890000D02*
X7620000Y5080000D01*
X11430000Y3810000D02*
X7620000Y3810000D01*
X7620000Y5080000D02*
X7620000Y3810000D01*
X7620000Y3810000D02*
X7620000Y2540000D01*
X7620000Y16510000D02*
X7620000Y15240000D01*
X7620000Y15240000D02*
X8890000Y13970000D01*
X8890000Y13970000D02*
X11430000Y13970000D01*
X2540000Y10160000D02*
X7620000Y10160000D01*
X7620000Y10160000D02*
X8890000Y11430000D01*
X8890000Y11430000D02*
X11430000Y13970000D01*
G36*
X10052460Y18200000D02*
G01*
X10062597Y18097082D01*
X10092617Y17998119D01*
X10141367Y17906914D01*
X10206973Y17826973D01*
X10286914Y17761367D01*
X10378119Y17712617D01*
X10477082Y17682597D01*
X10580000Y17672460D01*
X10687947Y17672460D01*
X10662395Y17658802D01*
X10453024Y17486976D01*
X10281198Y17277605D01*
X10153519Y17038736D01*
X10074895Y16779547D01*
X10048347Y16510000D01*
X10074895Y16240453D01*
X10153519Y15981264D01*
X10281198Y15742395D01*
X10453024Y15533024D01*
X10662395Y15361198D01*
X10889139Y15240000D01*
X10662395Y15118802D01*
X10453024Y14946976D01*
X10281198Y14737605D01*
X10245062Y14670000D01*
X9179949Y14670000D01*
X8675433Y15174516D01*
X8763086Y15221367D01*
X8843027Y15286973D01*
X8908633Y15366914D01*
X8957383Y15458119D01*
X8987403Y15557082D01*
X8997540Y15660000D01*
X8997540Y17360000D01*
X8987403Y17462918D01*
X8957383Y17561881D01*
X8908633Y17653086D01*
X8843027Y17733027D01*
X8763086Y17798633D01*
X8671881Y17847383D01*
X8572918Y17877403D01*
X8470000Y17887540D01*
X6770000Y17887540D01*
X6667082Y17877403D01*
X6568119Y17847383D01*
X6476914Y17798633D01*
X6396973Y17733027D01*
X6331367Y17653086D01*
X6282617Y17561881D01*
X6252597Y17462918D01*
X6242460Y17360000D01*
X6242460Y17252053D01*
X6228802Y17277605D01*
X6056976Y17486976D01*
X5847605Y17658802D01*
X5608736Y17786481D01*
X5349547Y17865105D01*
X5147549Y17885000D01*
X5012451Y17885000D01*
X4810453Y17865105D01*
X4551264Y17786481D01*
X4312395Y17658802D01*
X4103024Y17486976D01*
X3931198Y17277605D01*
X3806025Y17043424D01*
X3802137Y17055568D01*
X3671450Y17291316D01*
X3497282Y17497038D01*
X3286327Y17664829D01*
X3046691Y17788240D01*
X2828854Y17854317D01*
X2615000Y17751487D01*
X2615000Y16585000D01*
X2635000Y16585000D01*
X2635000Y16435000D01*
X2615000Y16435000D01*
X2615000Y15268513D01*
X2828854Y15165683D01*
X3046691Y15231760D01*
X3286327Y15355171D01*
X3497282Y15522962D01*
X3671450Y15728684D01*
X3802137Y15964432D01*
X3806025Y15976576D01*
X3931198Y15742395D01*
X4103024Y15533024D01*
X4312395Y15361198D01*
X4551264Y15233519D01*
X4810453Y15154895D01*
X5012451Y15135000D01*
X5147549Y15135000D01*
X5349547Y15154895D01*
X5608736Y15233519D01*
X5847605Y15361198D01*
X6056976Y15533024D01*
X6228802Y15742395D01*
X6242460Y15767947D01*
X6242460Y15660000D01*
X6252597Y15557082D01*
X6282617Y15458119D01*
X6331367Y15366914D01*
X6396973Y15286973D01*
X6476914Y15221367D01*
X6568119Y15172617D01*
X6667082Y15142597D01*
X6770000Y15132460D01*
X6927205Y15132460D01*
X6930129Y15102777D01*
X6970155Y14970826D01*
X7035155Y14849219D01*
X7100708Y14769343D01*
X7122631Y14742630D01*
X7149342Y14720709D01*
X8370704Y13499347D01*
X8392630Y13472630D01*
X8460870Y13416627D01*
X8499218Y13385155D01*
X8620825Y13320155D01*
X8752776Y13280128D01*
X8855610Y13270000D01*
X8855612Y13270000D01*
X8889999Y13266613D01*
X8924386Y13270000D01*
X9740051Y13270000D01*
X7921114Y11451063D01*
X7750501Y11485000D01*
X7489499Y11485000D01*
X7233512Y11434081D01*
X6992377Y11334200D01*
X6775362Y11189195D01*
X6590805Y11004638D01*
X6494161Y10860000D01*
X3813108Y10860000D01*
X3817540Y10905000D01*
X3817540Y11955000D01*
X3807403Y12057918D01*
X3777383Y12156881D01*
X3728633Y12248086D01*
X3663027Y12328027D01*
X3583086Y12393633D01*
X3491881Y12442383D01*
X3392918Y12472403D01*
X3290000Y12482540D01*
X1790000Y12482540D01*
X1687082Y12472403D01*
X1588119Y12442383D01*
X1496914Y12393633D01*
X1416973Y12328027D01*
X1351367Y12248086D01*
X1302617Y12156881D01*
X1272597Y12057918D01*
X1262460Y11955000D01*
X1262460Y10905000D01*
X1272597Y10802082D01*
X1302617Y10703119D01*
X1351367Y10611914D01*
X1360211Y10601138D01*
X1340233Y10563762D01*
X1280193Y10365836D01*
X1259920Y10160000D01*
X1280193Y9954164D01*
X1340233Y9756238D01*
X1437733Y9573829D01*
X1479511Y9522922D01*
X1400289Y9410988D01*
X1316225Y9222526D01*
X1292309Y9127913D01*
X1399316Y8965000D01*
X2465000Y8965000D01*
X2465000Y8985000D01*
X2615000Y8985000D01*
X2615000Y8965000D01*
X3680684Y8965000D01*
X3787691Y9127913D01*
X3763775Y9222526D01*
X3679711Y9410988D01*
X3645022Y9460000D01*
X6494161Y9460000D01*
X6590805Y9315362D01*
X6775362Y9130805D01*
X6992377Y8985800D01*
X7233512Y8885919D01*
X7489499Y8835000D01*
X7750501Y8835000D01*
X8006488Y8885919D01*
X8247623Y8985800D01*
X8464638Y9130805D01*
X8649195Y9315362D01*
X8794200Y9532377D01*
X8894081Y9773512D01*
X8945000Y10029499D01*
X8945000Y10290501D01*
X8911063Y10461114D01*
X10066745Y11616796D01*
X10048347Y11430000D01*
X10074895Y11160453D01*
X10153519Y10901264D01*
X10281198Y10662395D01*
X10453024Y10453024D01*
X10662395Y10281198D01*
X10896576Y10156025D01*
X10884432Y10152137D01*
X10648684Y10021450D01*
X10442962Y9847282D01*
X10275171Y9636327D01*
X10151760Y9396691D01*
X10085683Y9178854D01*
X10188513Y8965000D01*
X11355000Y8965000D01*
X11355000Y8985000D01*
X11505000Y8985000D01*
X11505000Y8965000D01*
X12671487Y8965000D01*
X12774317Y9178854D01*
X12708240Y9396691D01*
X12584829Y9636327D01*
X12417038Y9847282D01*
X12211316Y10021450D01*
X11975568Y10152137D01*
X11963424Y10156025D01*
X12197605Y10281198D01*
X12406976Y10453024D01*
X12578802Y10662395D01*
X12706481Y10901264D01*
X12785105Y11160453D01*
X12811653Y11430000D01*
X12785105Y11699547D01*
X12706481Y11958736D01*
X12578802Y12197605D01*
X12406976Y12406976D01*
X12197605Y12578802D01*
X11970861Y12700000D01*
X12197605Y12821198D01*
X12406976Y12993024D01*
X12578802Y13202395D01*
X12706481Y13441264D01*
X12785105Y13700453D01*
X12811653Y13970000D01*
X12785105Y14239547D01*
X12706481Y14498736D01*
X12578802Y14737605D01*
X12406976Y14946976D01*
X12197605Y15118802D01*
X11970861Y15240000D01*
X12197605Y15361198D01*
X12406976Y15533024D01*
X12578802Y15742395D01*
X12706481Y15981264D01*
X12785105Y16240453D01*
X12811653Y16510000D01*
X12785105Y16779547D01*
X12706481Y17038736D01*
X12578802Y17277605D01*
X12406976Y17486976D01*
X12197605Y17658802D01*
X12172053Y17672460D01*
X12280000Y17672460D01*
X12382918Y17682597D01*
X12481881Y17712617D01*
X12573086Y17761367D01*
X12653027Y17826973D01*
X12718633Y17906914D01*
X12767383Y17998119D01*
X12797403Y18097082D01*
X12807540Y18200000D01*
X12807540Y19770000D01*
X13943101Y19770000D01*
X14109337Y19753700D01*
X14243364Y19713235D01*
X14366984Y19647506D01*
X14475475Y19559022D01*
X14564721Y19451143D01*
X14631309Y19327990D01*
X14672711Y19194243D01*
X14690001Y19029739D01*
X14690000Y1296899D01*
X14673700Y1130663D01*
X14633235Y996636D01*
X14567506Y873018D01*
X14479021Y764524D01*
X14371143Y675279D01*
X14247990Y608691D01*
X14114243Y567289D01*
X13949749Y550000D01*
X12604248Y550000D01*
X12706481Y741264D01*
X12785105Y1000453D01*
X12811653Y1270000D01*
X12785105Y1539547D01*
X12706481Y1798736D01*
X12578802Y2037605D01*
X12406976Y2246976D01*
X12197605Y2418802D01*
X11963424Y2543975D01*
X11975568Y2547863D01*
X12211316Y2678550D01*
X12417038Y2852718D01*
X12584829Y3063673D01*
X12708240Y3303309D01*
X12774317Y3521146D01*
X12671487Y3735000D01*
X11505000Y3735000D01*
X11505000Y3715000D01*
X11355000Y3715000D01*
X11355000Y3735000D01*
X10188513Y3735000D01*
X10085683Y3521146D01*
X10151760Y3303309D01*
X10275171Y3063673D01*
X10442962Y2852718D01*
X10648684Y2678550D01*
X10884432Y2547863D01*
X10896576Y2543975D01*
X10662395Y2418802D01*
X10453024Y2246976D01*
X10281198Y2037605D01*
X10153519Y1798736D01*
X10074895Y1539547D01*
X10048347Y1270000D01*
X10074895Y1000453D01*
X10153519Y741264D01*
X10255752Y550000D01*
X1296899Y550000D01*
X1130663Y566300D01*
X996636Y606765D01*
X873018Y672494D01*
X764524Y760979D01*
X675279Y868857D01*
X608691Y992010D01*
X567289Y1125757D01*
X550000Y1290251D01*
X550000Y2258980D01*
X6325140Y2258980D01*
X6404845Y2011765D01*
X6531247Y1784850D01*
X6699490Y1586955D01*
X6903107Y1425685D01*
X7134274Y1307237D01*
X7338980Y1245143D01*
X7545000Y1348608D01*
X7545000Y2465000D01*
X7695000Y2465000D01*
X7695000Y1348608D01*
X7901020Y1245143D01*
X8105726Y1307237D01*
X8336893Y1425685D01*
X8540510Y1586955D01*
X8708753Y1784850D01*
X8835155Y2011765D01*
X8914860Y2258980D01*
X8811629Y2465000D01*
X7695000Y2465000D01*
X7545000Y2465000D01*
X6428371Y2465000D01*
X6325140Y2258980D01*
X550000Y2258980D01*
X550000Y2821020D01*
X6325140Y2821020D01*
X6428371Y2615000D01*
X7545000Y2615000D01*
X7545000Y3731392D01*
X7695000Y3731392D01*
X7695000Y2615000D01*
X8811629Y2615000D01*
X8914860Y2821020D01*
X8835155Y3068235D01*
X8708753Y3295150D01*
X8540510Y3493045D01*
X8336893Y3654315D01*
X8105726Y3772763D01*
X7901020Y3834857D01*
X7695000Y3731392D01*
X7545000Y3731392D01*
X7338980Y3834857D01*
X7134274Y3772763D01*
X6903107Y3654315D01*
X6699490Y3493045D01*
X6531247Y3295150D01*
X6404845Y3068235D01*
X6325140Y2821020D01*
X550000Y2821020D01*
X550000Y6350000D01*
X10048347Y6350000D01*
X10074895Y6080453D01*
X10153519Y5821264D01*
X10281198Y5582395D01*
X10453024Y5373024D01*
X10662395Y5201198D01*
X10896576Y5076025D01*
X10884432Y5072137D01*
X10648684Y4941450D01*
X10442962Y4767282D01*
X10275171Y4556327D01*
X10151760Y4316691D01*
X10085683Y4098854D01*
X10188513Y3885000D01*
X11355000Y3885000D01*
X11355000Y3905000D01*
X11505000Y3905000D01*
X11505000Y3885000D01*
X12671487Y3885000D01*
X12774317Y4098854D01*
X12708240Y4316691D01*
X12584829Y4556327D01*
X12417038Y4767282D01*
X12211316Y4941450D01*
X11975568Y5072137D01*
X11963424Y5076025D01*
X12197605Y5201198D01*
X12406976Y5373024D01*
X12578802Y5582395D01*
X12706481Y5821264D01*
X12785105Y6080453D01*
X12811653Y6350000D01*
X12785105Y6619547D01*
X12706481Y6878736D01*
X12578802Y7117605D01*
X12406976Y7326976D01*
X12197605Y7498802D01*
X11963424Y7623975D01*
X11975568Y7627863D01*
X12211316Y7758550D01*
X12417038Y7932718D01*
X12584829Y8143673D01*
X12708240Y8383309D01*
X12774317Y8601146D01*
X12671487Y8815000D01*
X11505000Y8815000D01*
X11505000Y8795000D01*
X11355000Y8795000D01*
X11355000Y8815000D01*
X10188513Y8815000D01*
X10085683Y8601146D01*
X10151760Y8383309D01*
X10275171Y8143673D01*
X10442962Y7932718D01*
X10648684Y7758550D01*
X10884432Y7627863D01*
X10896576Y7623975D01*
X10662395Y7498802D01*
X10453024Y7326976D01*
X10281198Y7117605D01*
X10153519Y6878736D01*
X10074895Y6619547D01*
X10048347Y6350000D01*
X550000Y6350000D01*
X550000Y8652087D01*
X1292309Y8652087D01*
X1316225Y8557474D01*
X1400289Y8369012D01*
X1519505Y8200571D01*
X1669291Y8058625D01*
X1843891Y7948628D01*
X2036596Y7874807D01*
X2240000Y7840000D01*
X2465000Y7840000D01*
X2465000Y8815000D01*
X2615000Y8815000D01*
X2615000Y7840000D01*
X2840000Y7840000D01*
X3043404Y7874807D01*
X3236109Y7948628D01*
X3410709Y8058625D01*
X3560495Y8200571D01*
X3679711Y8369012D01*
X3763775Y8557474D01*
X3787691Y8652087D01*
X3680684Y8815000D01*
X2615000Y8815000D01*
X2465000Y8815000D01*
X1399316Y8815000D01*
X1292309Y8652087D01*
X550000Y8652087D01*
X550000Y16221146D01*
X1195680Y16221146D01*
X1277863Y15964432D01*
X1408550Y15728684D01*
X1582718Y15522962D01*
X1793673Y15355171D01*
X2033309Y15231760D01*
X2251146Y15165683D01*
X2465000Y15268513D01*
X2465000Y16435000D01*
X1298294Y16435000D01*
X1195680Y16221146D01*
X550000Y16221146D01*
X550000Y16798854D01*
X1195680Y16798854D01*
X1298294Y16585000D01*
X2465000Y16585000D01*
X2465000Y17751487D01*
X2251146Y17854317D01*
X2033309Y17788240D01*
X1793673Y17664829D01*
X1582718Y17497038D01*
X1408550Y17291316D01*
X1277863Y17055568D01*
X1195680Y16798854D01*
X550000Y16798854D01*
X550000Y19023101D01*
X566300Y19189337D01*
X606765Y19323364D01*
X672494Y19446984D01*
X760978Y19555475D01*
X868857Y19644721D01*
X992010Y19711309D01*
X1125757Y19752711D01*
X1290252Y19770000D01*
X10052460Y19770000D01*
X10052460Y18200000D01*
X10052460Y18200000D01*
G37*
X10052460Y18200000D02*
X10062597Y18097082D01*
X10092617Y17998119D01*
X10141367Y17906914D01*
X10206973Y17826973D01*
X10286914Y17761367D01*
X10378119Y17712617D01*
X10477082Y17682597D01*
X10580000Y17672460D01*
X10687947Y17672460D01*
X10662395Y17658802D01*
X10453024Y17486976D01*
X10281198Y17277605D01*
X10153519Y17038736D01*
X10074895Y16779547D01*
X10048347Y16510000D01*
X10074895Y16240453D01*
X10153519Y15981264D01*
X10281198Y15742395D01*
X10453024Y15533024D01*
X10662395Y15361198D01*
X10889139Y15240000D01*
X10662395Y15118802D01*
X10453024Y14946976D01*
X10281198Y14737605D01*
X10245062Y14670000D01*
X9179949Y14670000D01*
X8675433Y15174516D01*
X8763086Y15221367D01*
X8843027Y15286973D01*
X8908633Y15366914D01*
X8957383Y15458119D01*
X8987403Y15557082D01*
X8997540Y15660000D01*
X8997540Y17360000D01*
X8987403Y17462918D01*
X8957383Y17561881D01*
X8908633Y17653086D01*
X8843027Y17733027D01*
X8763086Y17798633D01*
X8671881Y17847383D01*
X8572918Y17877403D01*
X8470000Y17887540D01*
X6770000Y17887540D01*
X6667082Y17877403D01*
X6568119Y17847383D01*
X6476914Y17798633D01*
X6396973Y17733027D01*
X6331367Y17653086D01*
X6282617Y17561881D01*
X6252597Y17462918D01*
X6242460Y17360000D01*
X6242460Y17252053D01*
X6228802Y17277605D01*
X6056976Y17486976D01*
X5847605Y17658802D01*
X5608736Y17786481D01*
X5349547Y17865105D01*
X5147549Y17885000D01*
X5012451Y17885000D01*
X4810453Y17865105D01*
X4551264Y17786481D01*
X4312395Y17658802D01*
X4103024Y17486976D01*
X3931198Y17277605D01*
X3806025Y17043424D01*
X3802137Y17055568D01*
X3671450Y17291316D01*
X3497282Y17497038D01*
X3286327Y17664829D01*
X3046691Y17788240D01*
X2828854Y17854317D01*
X2615000Y17751487D01*
X2615000Y16585000D01*
X2635000Y16585000D01*
X2635000Y16435000D01*
X2615000Y16435000D01*
X2615000Y15268513D01*
X2828854Y15165683D01*
X3046691Y15231760D01*
X3286327Y15355171D01*
X3497282Y15522962D01*
X3671450Y15728684D01*
X3802137Y15964432D01*
X3806025Y15976576D01*
X3931198Y15742395D01*
X4103024Y15533024D01*
X4312395Y15361198D01*
X4551264Y15233519D01*
X4810453Y15154895D01*
X5012451Y15135000D01*
X5147549Y15135000D01*
X5349547Y15154895D01*
X5608736Y15233519D01*
X5847605Y15361198D01*
X6056976Y15533024D01*
X6228802Y15742395D01*
X6242460Y15767947D01*
X6242460Y15660000D01*
X6252597Y15557082D01*
X6282617Y15458119D01*
X6331367Y15366914D01*
X6396973Y15286973D01*
X6476914Y15221367D01*
X6568119Y15172617D01*
X6667082Y15142597D01*
X6770000Y15132460D01*
X6927205Y15132460D01*
X6930129Y15102777D01*
X6970155Y14970826D01*
X7035155Y14849219D01*
X7100708Y14769343D01*
X7122631Y14742630D01*
X7149342Y14720709D01*
X8370704Y13499347D01*
X8392630Y13472630D01*
X8460870Y13416627D01*
X8499218Y13385155D01*
X8620825Y13320155D01*
X8752776Y13280128D01*
X8855610Y13270000D01*
X8855612Y13270000D01*
X8889999Y13266613D01*
X8924386Y13270000D01*
X9740051Y13270000D01*
X7921114Y11451063D01*
X7750501Y11485000D01*
X7489499Y11485000D01*
X7233512Y11434081D01*
X6992377Y11334200D01*
X6775362Y11189195D01*
X6590805Y11004638D01*
X6494161Y10860000D01*
X3813108Y10860000D01*
X3817540Y10905000D01*
X3817540Y11955000D01*
X3807403Y12057918D01*
X3777383Y12156881D01*
X3728633Y12248086D01*
X3663027Y12328027D01*
X3583086Y12393633D01*
X3491881Y12442383D01*
X3392918Y12472403D01*
X3290000Y12482540D01*
X1790000Y12482540D01*
X1687082Y12472403D01*
X1588119Y12442383D01*
X1496914Y12393633D01*
X1416973Y12328027D01*
X1351367Y12248086D01*
X1302617Y12156881D01*
X1272597Y12057918D01*
X1262460Y11955000D01*
X1262460Y10905000D01*
X1272597Y10802082D01*
X1302617Y10703119D01*
X1351367Y10611914D01*
X1360211Y10601138D01*
X1340233Y10563762D01*
X1280193Y10365836D01*
X1259920Y10160000D01*
X1280193Y9954164D01*
X1340233Y9756238D01*
X1437733Y9573829D01*
X1479511Y9522922D01*
X1400289Y9410988D01*
X1316225Y9222526D01*
X1292309Y9127913D01*
X1399316Y8965000D01*
X2465000Y8965000D01*
X2465000Y8985000D01*
X2615000Y8985000D01*
X2615000Y8965000D01*
X3680684Y8965000D01*
X3787691Y9127913D01*
X3763775Y9222526D01*
X3679711Y9410988D01*
X3645022Y9460000D01*
X6494161Y9460000D01*
X6590805Y9315362D01*
X6775362Y9130805D01*
X6992377Y8985800D01*
X7233512Y8885919D01*
X7489499Y8835000D01*
X7750501Y8835000D01*
X8006488Y8885919D01*
X8247623Y8985800D01*
X8464638Y9130805D01*
X8649195Y9315362D01*
X8794200Y9532377D01*
X8894081Y9773512D01*
X8945000Y10029499D01*
X8945000Y10290501D01*
X8911063Y10461114D01*
X10066745Y11616796D01*
X10048347Y11430000D01*
X10074895Y11160453D01*
X10153519Y10901264D01*
X10281198Y10662395D01*
X10453024Y10453024D01*
X10662395Y10281198D01*
X10896576Y10156025D01*
X10884432Y10152137D01*
X10648684Y10021450D01*
X10442962Y9847282D01*
X10275171Y9636327D01*
X10151760Y9396691D01*
X10085683Y9178854D01*
X10188513Y8965000D01*
X11355000Y8965000D01*
X11355000Y8985000D01*
X11505000Y8985000D01*
X11505000Y8965000D01*
X12671487Y8965000D01*
X12774317Y9178854D01*
X12708240Y9396691D01*
X12584829Y9636327D01*
X12417038Y9847282D01*
X12211316Y10021450D01*
X11975568Y10152137D01*
X11963424Y10156025D01*
X12197605Y10281198D01*
X12406976Y10453024D01*
X12578802Y10662395D01*
X12706481Y10901264D01*
X12785105Y11160453D01*
X12811653Y11430000D01*
X12785105Y11699547D01*
X12706481Y11958736D01*
X12578802Y12197605D01*
X12406976Y12406976D01*
X12197605Y12578802D01*
X11970861Y12700000D01*
X12197605Y12821198D01*
X12406976Y12993024D01*
X12578802Y13202395D01*
X12706481Y13441264D01*
X12785105Y13700453D01*
X12811653Y13970000D01*
X12785105Y14239547D01*
X12706481Y14498736D01*
X12578802Y14737605D01*
X12406976Y14946976D01*
X12197605Y15118802D01*
X11970861Y15240000D01*
X12197605Y15361198D01*
X12406976Y15533024D01*
X12578802Y15742395D01*
X12706481Y15981264D01*
X12785105Y16240453D01*
X12811653Y16510000D01*
X12785105Y16779547D01*
X12706481Y17038736D01*
X12578802Y17277605D01*
X12406976Y17486976D01*
X12197605Y17658802D01*
X12172053Y17672460D01*
X12280000Y17672460D01*
X12382918Y17682597D01*
X12481881Y17712617D01*
X12573086Y17761367D01*
X12653027Y17826973D01*
X12718633Y17906914D01*
X12767383Y17998119D01*
X12797403Y18097082D01*
X12807540Y18200000D01*
X12807540Y19770000D01*
X13943101Y19770000D01*
X14109337Y19753700D01*
X14243364Y19713235D01*
X14366984Y19647506D01*
X14475475Y19559022D01*
X14564721Y19451143D01*
X14631309Y19327990D01*
X14672711Y19194243D01*
X14690001Y19029739D01*
X14690000Y1296899D01*
X14673700Y1130663D01*
X14633235Y996636D01*
X14567506Y873018D01*
X14479021Y764524D01*
X14371143Y675279D01*
X14247990Y608691D01*
X14114243Y567289D01*
X13949749Y550000D01*
X12604248Y550000D01*
X12706481Y741264D01*
X12785105Y1000453D01*
X12811653Y1270000D01*
X12785105Y1539547D01*
X12706481Y1798736D01*
X12578802Y2037605D01*
X12406976Y2246976D01*
X12197605Y2418802D01*
X11963424Y2543975D01*
X11975568Y2547863D01*
X12211316Y2678550D01*
X12417038Y2852718D01*
X12584829Y3063673D01*
X12708240Y3303309D01*
X12774317Y3521146D01*
X12671487Y3735000D01*
X11505000Y3735000D01*
X11505000Y3715000D01*
X11355000Y3715000D01*
X11355000Y3735000D01*
X10188513Y3735000D01*
X10085683Y3521146D01*
X10151760Y3303309D01*
X10275171Y3063673D01*
X10442962Y2852718D01*
X10648684Y2678550D01*
X10884432Y2547863D01*
X10896576Y2543975D01*
X10662395Y2418802D01*
X10453024Y2246976D01*
X10281198Y2037605D01*
X10153519Y1798736D01*
X10074895Y1539547D01*
X10048347Y1270000D01*
X10074895Y1000453D01*
X10153519Y741264D01*
X10255752Y550000D01*
X1296899Y550000D01*
X1130663Y566300D01*
X996636Y606765D01*
X873018Y672494D01*
X764524Y760979D01*
X675279Y868857D01*
X608691Y992010D01*
X567289Y1125757D01*
X550000Y1290251D01*
X550000Y2258980D01*
X6325140Y2258980D01*
X6404845Y2011765D01*
X6531247Y1784850D01*
X6699490Y1586955D01*
X6903107Y1425685D01*
X7134274Y1307237D01*
X7338980Y1245143D01*
X7545000Y1348608D01*
X7545000Y2465000D01*
X7695000Y2465000D01*
X7695000Y1348608D01*
X7901020Y1245143D01*
X8105726Y1307237D01*
X8336893Y1425685D01*
X8540510Y1586955D01*
X8708753Y1784850D01*
X8835155Y2011765D01*
X8914860Y2258980D01*
X8811629Y2465000D01*
X7695000Y2465000D01*
X7545000Y2465000D01*
X6428371Y2465000D01*
X6325140Y2258980D01*
X550000Y2258980D01*
X550000Y2821020D01*
X6325140Y2821020D01*
X6428371Y2615000D01*
X7545000Y2615000D01*
X7545000Y3731392D01*
X7695000Y3731392D01*
X7695000Y2615000D01*
X8811629Y2615000D01*
X8914860Y2821020D01*
X8835155Y3068235D01*
X8708753Y3295150D01*
X8540510Y3493045D01*
X8336893Y3654315D01*
X8105726Y3772763D01*
X7901020Y3834857D01*
X7695000Y3731392D01*
X7545000Y3731392D01*
X7338980Y3834857D01*
X7134274Y3772763D01*
X6903107Y3654315D01*
X6699490Y3493045D01*
X6531247Y3295150D01*
X6404845Y3068235D01*
X6325140Y2821020D01*
X550000Y2821020D01*
X550000Y6350000D01*
X10048347Y6350000D01*
X10074895Y6080453D01*
X10153519Y5821264D01*
X10281198Y5582395D01*
X10453024Y5373024D01*
X10662395Y5201198D01*
X10896576Y5076025D01*
X10884432Y5072137D01*
X10648684Y4941450D01*
X10442962Y4767282D01*
X10275171Y4556327D01*
X10151760Y4316691D01*
X10085683Y4098854D01*
X10188513Y3885000D01*
X11355000Y3885000D01*
X11355000Y3905000D01*
X11505000Y3905000D01*
X11505000Y3885000D01*
X12671487Y3885000D01*
X12774317Y4098854D01*
X12708240Y4316691D01*
X12584829Y4556327D01*
X12417038Y4767282D01*
X12211316Y4941450D01*
X11975568Y5072137D01*
X11963424Y5076025D01*
X12197605Y5201198D01*
X12406976Y5373024D01*
X12578802Y5582395D01*
X12706481Y5821264D01*
X12785105Y6080453D01*
X12811653Y6350000D01*
X12785105Y6619547D01*
X12706481Y6878736D01*
X12578802Y7117605D01*
X12406976Y7326976D01*
X12197605Y7498802D01*
X11963424Y7623975D01*
X11975568Y7627863D01*
X12211316Y7758550D01*
X12417038Y7932718D01*
X12584829Y8143673D01*
X12708240Y8383309D01*
X12774317Y8601146D01*
X12671487Y8815000D01*
X11505000Y8815000D01*
X11505000Y8795000D01*
X11355000Y8795000D01*
X11355000Y8815000D01*
X10188513Y8815000D01*
X10085683Y8601146D01*
X10151760Y8383309D01*
X10275171Y8143673D01*
X10442962Y7932718D01*
X10648684Y7758550D01*
X10884432Y7627863D01*
X10896576Y7623975D01*
X10662395Y7498802D01*
X10453024Y7326976D01*
X10281198Y7117605D01*
X10153519Y6878736D01*
X10074895Y6619547D01*
X10048347Y6350000D01*
X550000Y6350000D01*
X550000Y8652087D01*
X1292309Y8652087D01*
X1316225Y8557474D01*
X1400289Y8369012D01*
X1519505Y8200571D01*
X1669291Y8058625D01*
X1843891Y7948628D01*
X2036596Y7874807D01*
X2240000Y7840000D01*
X2465000Y7840000D01*
X2465000Y8815000D01*
X2615000Y8815000D01*
X2615000Y7840000D01*
X2840000Y7840000D01*
X3043404Y7874807D01*
X3236109Y7948628D01*
X3410709Y8058625D01*
X3560495Y8200571D01*
X3679711Y8369012D01*
X3763775Y8557474D01*
X3787691Y8652087D01*
X3680684Y8815000D01*
X2615000Y8815000D01*
X2465000Y8815000D01*
X1399316Y8815000D01*
X1292309Y8652087D01*
X550000Y8652087D01*
X550000Y16221146D01*
X1195680Y16221146D01*
X1277863Y15964432D01*
X1408550Y15728684D01*
X1582718Y15522962D01*
X1793673Y15355171D01*
X2033309Y15231760D01*
X2251146Y15165683D01*
X2465000Y15268513D01*
X2465000Y16435000D01*
X1298294Y16435000D01*
X1195680Y16221146D01*
X550000Y16221146D01*
X550000Y16798854D01*
X1195680Y16798854D01*
X1298294Y16585000D01*
X2465000Y16585000D01*
X2465000Y17751487D01*
X2251146Y17854317D01*
X2033309Y17788240D01*
X1793673Y17664829D01*
X1582718Y17497038D01*
X1408550Y17291316D01*
X1277863Y17055568D01*
X1195680Y16798854D01*
X550000Y16798854D01*
X550000Y19023101D01*
X566300Y19189337D01*
X606765Y19323364D01*
X672494Y19446984D01*
X760978Y19555475D01*
X868857Y19644721D01*
X992010Y19711309D01*
X1125757Y19752711D01*
X1290252Y19770000D01*
X10052460Y19770000D01*
X10052460Y18200000D01*
M02*
