%TF.GenerationSoftware,KiCad,Pcbnew,5.1.4*%
%TF.CreationDate,2019-09-29T12:18:45+02:00*%
%TF.ProjectId,m5stickc-dallas-hat-pcb,6d357374-6963-46b6-932d-64616c6c6173,rev?*%
%TF.SameCoordinates,PX8eeaea0PY695f190*%
%TF.FileFunction,Copper,L2,Bot*%
%TF.FilePolarity,Positive*%
%FSLAX46Y46*%
G04 Gerber Fmt 4.6, Leading zero omitted, Abs format (unit mm)*
G04 Created by KiCad (PCBNEW 5.1.4) date 2019-09-29 12:18:45*
%MOMM*%
%LPD*%
G04 APERTURE LIST*
%ADD10R,1.500000X1.050000*%
%ADD11O,1.500000X1.050000*%
%ADD12O,1.700000X1.700000*%
%ADD13R,1.700000X1.700000*%
%ADD14C,1.600000*%
%ADD15O,1.600000X1.600000*%
%ADD16C,0.350000*%
G04 APERTURE END LIST*
D10*
X2540000Y11430000D03*
D11*
X2540000Y8890000D03*
X2540000Y10160000D03*
D12*
X11430000Y1270000D03*
X11430000Y3810000D03*
X11430000Y6350000D03*
X11430000Y8890000D03*
X11430000Y11430000D03*
X11430000Y13970000D03*
X11430000Y16510000D03*
D13*
X11430000Y19050000D03*
D12*
X2540000Y16510000D03*
X5080000Y16510000D03*
D13*
X7620000Y16510000D03*
D14*
X7620000Y10160000D03*
D15*
X7620000Y2540000D03*
D16*
X2540000Y11430000D02*
X3810000Y11430000D01*
X3810000Y11430000D02*
X5080000Y12700000D01*
X5080000Y12700000D02*
X5080000Y16510000D01*
X5080000Y16510000D02*
X5080000Y17780000D01*
X5080000Y17780000D02*
X6350000Y19050000D01*
X6350000Y19050000D02*
X11430000Y19050000D01*
G36*
X10055000Y19256250D02*
G01*
X10186250Y19125000D01*
X11355000Y19125000D01*
X11355000Y19145000D01*
X11505000Y19145000D01*
X11505000Y19125000D01*
X12673750Y19125000D01*
X12805000Y19256250D01*
X12807027Y19770000D01*
X13943101Y19770000D01*
X14109337Y19753700D01*
X14243364Y19713235D01*
X14366984Y19647506D01*
X14475475Y19559022D01*
X14564721Y19451143D01*
X14631309Y19327990D01*
X14672711Y19194243D01*
X14690001Y19029739D01*
X14690000Y1296899D01*
X14673700Y1130663D01*
X14633235Y996636D01*
X14567506Y873018D01*
X14479021Y764524D01*
X14371143Y675279D01*
X14247990Y608691D01*
X14114243Y567289D01*
X13949749Y550000D01*
X12604248Y550000D01*
X12706481Y741264D01*
X12785105Y1000453D01*
X12811653Y1270000D01*
X12785105Y1539547D01*
X12706481Y1798736D01*
X12578802Y2037605D01*
X12406976Y2246976D01*
X12197605Y2418802D01*
X11970861Y2540000D01*
X12197605Y2661198D01*
X12406976Y2833024D01*
X12578802Y3042395D01*
X12706481Y3281264D01*
X12785105Y3540453D01*
X12811653Y3810000D01*
X12785105Y4079547D01*
X12706481Y4338736D01*
X12578802Y4577605D01*
X12406976Y4786976D01*
X12197605Y4958802D01*
X11970861Y5080000D01*
X12197605Y5201198D01*
X12406976Y5373024D01*
X12578802Y5582395D01*
X12706481Y5821264D01*
X12785105Y6080453D01*
X12811653Y6350000D01*
X12785105Y6619547D01*
X12706481Y6878736D01*
X12578802Y7117605D01*
X12406976Y7326976D01*
X12197605Y7498802D01*
X11970861Y7620000D01*
X12197605Y7741198D01*
X12406976Y7913024D01*
X12578802Y8122395D01*
X12706481Y8361264D01*
X12785105Y8620453D01*
X12811653Y8890000D01*
X12785105Y9159547D01*
X12706481Y9418736D01*
X12578802Y9657605D01*
X12406976Y9866976D01*
X12197605Y10038802D01*
X11970861Y10160000D01*
X12197605Y10281198D01*
X12406976Y10453024D01*
X12578802Y10662395D01*
X12706481Y10901264D01*
X12785105Y11160453D01*
X12811653Y11430000D01*
X12785105Y11699547D01*
X12706481Y11958736D01*
X12578802Y12197605D01*
X12406976Y12406976D01*
X12197605Y12578802D01*
X11970861Y12700000D01*
X12197605Y12821198D01*
X12406976Y12993024D01*
X12578802Y13202395D01*
X12706481Y13441264D01*
X12785105Y13700453D01*
X12811653Y13970000D01*
X12785105Y14239547D01*
X12706481Y14498736D01*
X12578802Y14737605D01*
X12406976Y14946976D01*
X12197605Y15118802D01*
X11970861Y15240000D01*
X12197605Y15361198D01*
X12406976Y15533024D01*
X12578802Y15742395D01*
X12706481Y15981264D01*
X12785105Y16240453D01*
X12811653Y16510000D01*
X12785105Y16779547D01*
X12706481Y17038736D01*
X12578802Y17277605D01*
X12406976Y17486976D01*
X12197605Y17658802D01*
X12171250Y17672889D01*
X12280000Y17672460D01*
X12382918Y17682597D01*
X12481881Y17712617D01*
X12573086Y17761367D01*
X12653027Y17826973D01*
X12718633Y17906914D01*
X12767383Y17998119D01*
X12797403Y18097082D01*
X12807540Y18200000D01*
X12805000Y18843750D01*
X12673750Y18975000D01*
X11505000Y18975000D01*
X11505000Y18955000D01*
X11355000Y18955000D01*
X11355000Y18975000D01*
X10186250Y18975000D01*
X10055000Y18843750D01*
X10052460Y18200000D01*
X10062597Y18097082D01*
X10092617Y17998119D01*
X10141367Y17906914D01*
X10206973Y17826973D01*
X10286914Y17761367D01*
X10378119Y17712617D01*
X10477082Y17682597D01*
X10580000Y17672460D01*
X10688750Y17672889D01*
X10662395Y17658802D01*
X10453024Y17486976D01*
X10281198Y17277605D01*
X10153519Y17038736D01*
X10074895Y16779547D01*
X10048347Y16510000D01*
X10074895Y16240453D01*
X10153519Y15981264D01*
X10281198Y15742395D01*
X10453024Y15533024D01*
X10662395Y15361198D01*
X10889139Y15240000D01*
X10662395Y15118802D01*
X10453024Y14946976D01*
X10281198Y14737605D01*
X10153519Y14498736D01*
X10074895Y14239547D01*
X10048347Y13970000D01*
X10074895Y13700453D01*
X10153519Y13441264D01*
X10281198Y13202395D01*
X10453024Y12993024D01*
X10662395Y12821198D01*
X10889139Y12700000D01*
X10662395Y12578802D01*
X10453024Y12406976D01*
X10281198Y12197605D01*
X10153519Y11958736D01*
X10074895Y11699547D01*
X10048347Y11430000D01*
X10074895Y11160453D01*
X10153519Y10901264D01*
X10281198Y10662395D01*
X10453024Y10453024D01*
X10662395Y10281198D01*
X10889139Y10160000D01*
X10662395Y10038802D01*
X10453024Y9866976D01*
X10281198Y9657605D01*
X10153519Y9418736D01*
X10074895Y9159547D01*
X10048347Y8890000D01*
X10074895Y8620453D01*
X10153519Y8361264D01*
X10281198Y8122395D01*
X10453024Y7913024D01*
X10662395Y7741198D01*
X10889139Y7620000D01*
X10662395Y7498802D01*
X10453024Y7326976D01*
X10281198Y7117605D01*
X10153519Y6878736D01*
X10074895Y6619547D01*
X10048347Y6350000D01*
X10074895Y6080453D01*
X10153519Y5821264D01*
X10281198Y5582395D01*
X10453024Y5373024D01*
X10662395Y5201198D01*
X10889139Y5080000D01*
X10662395Y4958802D01*
X10453024Y4786976D01*
X10281198Y4577605D01*
X10153519Y4338736D01*
X10074895Y4079547D01*
X10048347Y3810000D01*
X10074895Y3540453D01*
X10153519Y3281264D01*
X10281198Y3042395D01*
X10453024Y2833024D01*
X10662395Y2661198D01*
X10889139Y2540000D01*
X10662395Y2418802D01*
X10453024Y2246976D01*
X10281198Y2037605D01*
X10153519Y1798736D01*
X10074895Y1539547D01*
X10048347Y1270000D01*
X10074895Y1000453D01*
X10153519Y741264D01*
X10255752Y550000D01*
X1296899Y550000D01*
X1130663Y566300D01*
X996636Y606765D01*
X873018Y672494D01*
X764524Y760979D01*
X675279Y868857D01*
X608691Y992010D01*
X567289Y1125757D01*
X550000Y1290251D01*
X550000Y2540000D01*
X6288589Y2540000D01*
X6314172Y2280255D01*
X6389937Y2030491D01*
X6512972Y1800308D01*
X6678550Y1598550D01*
X6880308Y1432972D01*
X7110491Y1309937D01*
X7360255Y1234172D01*
X7554909Y1215000D01*
X7685091Y1215000D01*
X7879745Y1234172D01*
X8129509Y1309937D01*
X8359692Y1432972D01*
X8561450Y1598550D01*
X8727028Y1800308D01*
X8850063Y2030491D01*
X8925828Y2280255D01*
X8951411Y2540000D01*
X8925828Y2799745D01*
X8850063Y3049509D01*
X8727028Y3279692D01*
X8561450Y3481450D01*
X8359692Y3647028D01*
X8129509Y3770063D01*
X7879745Y3845828D01*
X7685091Y3865000D01*
X7554909Y3865000D01*
X7360255Y3845828D01*
X7110491Y3770063D01*
X6880308Y3647028D01*
X6678550Y3481450D01*
X6512972Y3279692D01*
X6389937Y3049509D01*
X6314172Y2799745D01*
X6288589Y2540000D01*
X550000Y2540000D01*
X550000Y10160000D01*
X1259920Y10160000D01*
X1280193Y9954164D01*
X1340233Y9756238D01*
X1437733Y9573829D01*
X1477806Y9525000D01*
X1437733Y9476171D01*
X1340233Y9293762D01*
X1280193Y9095836D01*
X1259920Y8890000D01*
X1280193Y8684164D01*
X1340233Y8486238D01*
X1437733Y8303829D01*
X1568946Y8143946D01*
X1728829Y8012733D01*
X1911238Y7915233D01*
X2109164Y7855193D01*
X2263422Y7840000D01*
X2816578Y7840000D01*
X2970836Y7855193D01*
X3168762Y7915233D01*
X3351171Y8012733D01*
X3511054Y8143946D01*
X3642267Y8303829D01*
X3739767Y8486238D01*
X3799807Y8684164D01*
X3820080Y8890000D01*
X3799807Y9095836D01*
X3739767Y9293762D01*
X3642267Y9476171D01*
X3602194Y9525000D01*
X3642267Y9573829D01*
X3739767Y9756238D01*
X3799807Y9954164D01*
X3820080Y10160000D01*
X3807227Y10290501D01*
X6295000Y10290501D01*
X6295000Y10029499D01*
X6345919Y9773512D01*
X6445800Y9532377D01*
X6590805Y9315362D01*
X6775362Y9130805D01*
X6992377Y8985800D01*
X7233512Y8885919D01*
X7489499Y8835000D01*
X7750501Y8835000D01*
X8006488Y8885919D01*
X8247623Y8985800D01*
X8464638Y9130805D01*
X8649195Y9315362D01*
X8794200Y9532377D01*
X8894081Y9773512D01*
X8945000Y10029499D01*
X8945000Y10290501D01*
X8894081Y10546488D01*
X8794200Y10787623D01*
X8649195Y11004638D01*
X8464638Y11189195D01*
X8247623Y11334200D01*
X8006488Y11434081D01*
X7750501Y11485000D01*
X7489499Y11485000D01*
X7233512Y11434081D01*
X6992377Y11334200D01*
X6775362Y11189195D01*
X6590805Y11004638D01*
X6445800Y10787623D01*
X6345919Y10546488D01*
X6295000Y10290501D01*
X3807227Y10290501D01*
X3799807Y10365836D01*
X3739767Y10563762D01*
X3719789Y10601138D01*
X3728633Y10611914D01*
X3777383Y10703119D01*
X3807403Y10802082D01*
X3817540Y10905000D01*
X3815000Y11223750D01*
X3683750Y11355000D01*
X2615000Y11355000D01*
X2615000Y11335000D01*
X2465000Y11335000D01*
X2465000Y11355000D01*
X1396250Y11355000D01*
X1265000Y11223750D01*
X1262460Y10905000D01*
X1272597Y10802082D01*
X1302617Y10703119D01*
X1351367Y10611914D01*
X1360211Y10601138D01*
X1340233Y10563762D01*
X1280193Y10365836D01*
X1259920Y10160000D01*
X550000Y10160000D01*
X550000Y11955000D01*
X1262460Y11955000D01*
X1265000Y11636250D01*
X1396250Y11505000D01*
X2465000Y11505000D01*
X2465000Y12348750D01*
X2615000Y12348750D01*
X2615000Y11505000D01*
X3683750Y11505000D01*
X3815000Y11636250D01*
X3817540Y11955000D01*
X3807403Y12057918D01*
X3777383Y12156881D01*
X3728633Y12248086D01*
X3663027Y12328027D01*
X3583086Y12393633D01*
X3491881Y12442383D01*
X3392918Y12472403D01*
X3290000Y12482540D01*
X2746250Y12480000D01*
X2615000Y12348750D01*
X2465000Y12348750D01*
X2333750Y12480000D01*
X1790000Y12482540D01*
X1687082Y12472403D01*
X1588119Y12442383D01*
X1496914Y12393633D01*
X1416973Y12328027D01*
X1351367Y12248086D01*
X1302617Y12156881D01*
X1272597Y12057918D01*
X1262460Y11955000D01*
X550000Y11955000D01*
X550000Y16510000D01*
X1158347Y16510000D01*
X1184895Y16240453D01*
X1263519Y15981264D01*
X1391198Y15742395D01*
X1563024Y15533024D01*
X1772395Y15361198D01*
X2011264Y15233519D01*
X2270453Y15154895D01*
X2472451Y15135000D01*
X2607549Y15135000D01*
X2809547Y15154895D01*
X3068736Y15233519D01*
X3307605Y15361198D01*
X3516976Y15533024D01*
X3688802Y15742395D01*
X3813975Y15976576D01*
X3817863Y15964432D01*
X3948550Y15728684D01*
X4122718Y15522962D01*
X4333673Y15355171D01*
X4573309Y15231760D01*
X4791146Y15165683D01*
X5005000Y15268513D01*
X5005000Y16435000D01*
X4985000Y16435000D01*
X4985000Y16585000D01*
X5005000Y16585000D01*
X5005000Y17751487D01*
X5155000Y17751487D01*
X5155000Y16585000D01*
X5175000Y16585000D01*
X5175000Y16435000D01*
X5155000Y16435000D01*
X5155000Y15268513D01*
X5368854Y15165683D01*
X5586691Y15231760D01*
X5826327Y15355171D01*
X6037282Y15522962D01*
X6211450Y15728684D01*
X6242460Y15784623D01*
X6242460Y15660000D01*
X6252597Y15557082D01*
X6282617Y15458119D01*
X6331367Y15366914D01*
X6396973Y15286973D01*
X6476914Y15221367D01*
X6568119Y15172617D01*
X6667082Y15142597D01*
X6770000Y15132460D01*
X8470000Y15132460D01*
X8572918Y15142597D01*
X8671881Y15172617D01*
X8763086Y15221367D01*
X8843027Y15286973D01*
X8908633Y15366914D01*
X8957383Y15458119D01*
X8987403Y15557082D01*
X8997540Y15660000D01*
X8997540Y17360000D01*
X8987403Y17462918D01*
X8957383Y17561881D01*
X8908633Y17653086D01*
X8843027Y17733027D01*
X8763086Y17798633D01*
X8671881Y17847383D01*
X8572918Y17877403D01*
X8470000Y17887540D01*
X6770000Y17887540D01*
X6667082Y17877403D01*
X6568119Y17847383D01*
X6476914Y17798633D01*
X6396973Y17733027D01*
X6331367Y17653086D01*
X6282617Y17561881D01*
X6252597Y17462918D01*
X6242460Y17360000D01*
X6242460Y17235377D01*
X6211450Y17291316D01*
X6037282Y17497038D01*
X5826327Y17664829D01*
X5586691Y17788240D01*
X5368854Y17854317D01*
X5155000Y17751487D01*
X5005000Y17751487D01*
X4791146Y17854317D01*
X4573309Y17788240D01*
X4333673Y17664829D01*
X4122718Y17497038D01*
X3948550Y17291316D01*
X3817863Y17055568D01*
X3813975Y17043424D01*
X3688802Y17277605D01*
X3516976Y17486976D01*
X3307605Y17658802D01*
X3068736Y17786481D01*
X2809547Y17865105D01*
X2607549Y17885000D01*
X2472451Y17885000D01*
X2270453Y17865105D01*
X2011264Y17786481D01*
X1772395Y17658802D01*
X1563024Y17486976D01*
X1391198Y17277605D01*
X1263519Y17038736D01*
X1184895Y16779547D01*
X1158347Y16510000D01*
X550000Y16510000D01*
X550000Y19023101D01*
X566300Y19189337D01*
X606765Y19323364D01*
X672494Y19446984D01*
X760978Y19555475D01*
X868857Y19644721D01*
X992010Y19711309D01*
X1125757Y19752711D01*
X1290252Y19770000D01*
X10052973Y19770000D01*
X10055000Y19256250D01*
X10055000Y19256250D01*
G37*
X10055000Y19256250D02*
X10186250Y19125000D01*
X11355000Y19125000D01*
X11355000Y19145000D01*
X11505000Y19145000D01*
X11505000Y19125000D01*
X12673750Y19125000D01*
X12805000Y19256250D01*
X12807027Y19770000D01*
X13943101Y19770000D01*
X14109337Y19753700D01*
X14243364Y19713235D01*
X14366984Y19647506D01*
X14475475Y19559022D01*
X14564721Y19451143D01*
X14631309Y19327990D01*
X14672711Y19194243D01*
X14690001Y19029739D01*
X14690000Y1296899D01*
X14673700Y1130663D01*
X14633235Y996636D01*
X14567506Y873018D01*
X14479021Y764524D01*
X14371143Y675279D01*
X14247990Y608691D01*
X14114243Y567289D01*
X13949749Y550000D01*
X12604248Y550000D01*
X12706481Y741264D01*
X12785105Y1000453D01*
X12811653Y1270000D01*
X12785105Y1539547D01*
X12706481Y1798736D01*
X12578802Y2037605D01*
X12406976Y2246976D01*
X12197605Y2418802D01*
X11970861Y2540000D01*
X12197605Y2661198D01*
X12406976Y2833024D01*
X12578802Y3042395D01*
X12706481Y3281264D01*
X12785105Y3540453D01*
X12811653Y3810000D01*
X12785105Y4079547D01*
X12706481Y4338736D01*
X12578802Y4577605D01*
X12406976Y4786976D01*
X12197605Y4958802D01*
X11970861Y5080000D01*
X12197605Y5201198D01*
X12406976Y5373024D01*
X12578802Y5582395D01*
X12706481Y5821264D01*
X12785105Y6080453D01*
X12811653Y6350000D01*
X12785105Y6619547D01*
X12706481Y6878736D01*
X12578802Y7117605D01*
X12406976Y7326976D01*
X12197605Y7498802D01*
X11970861Y7620000D01*
X12197605Y7741198D01*
X12406976Y7913024D01*
X12578802Y8122395D01*
X12706481Y8361264D01*
X12785105Y8620453D01*
X12811653Y8890000D01*
X12785105Y9159547D01*
X12706481Y9418736D01*
X12578802Y9657605D01*
X12406976Y9866976D01*
X12197605Y10038802D01*
X11970861Y10160000D01*
X12197605Y10281198D01*
X12406976Y10453024D01*
X12578802Y10662395D01*
X12706481Y10901264D01*
X12785105Y11160453D01*
X12811653Y11430000D01*
X12785105Y11699547D01*
X12706481Y11958736D01*
X12578802Y12197605D01*
X12406976Y12406976D01*
X12197605Y12578802D01*
X11970861Y12700000D01*
X12197605Y12821198D01*
X12406976Y12993024D01*
X12578802Y13202395D01*
X12706481Y13441264D01*
X12785105Y13700453D01*
X12811653Y13970000D01*
X12785105Y14239547D01*
X12706481Y14498736D01*
X12578802Y14737605D01*
X12406976Y14946976D01*
X12197605Y15118802D01*
X11970861Y15240000D01*
X12197605Y15361198D01*
X12406976Y15533024D01*
X12578802Y15742395D01*
X12706481Y15981264D01*
X12785105Y16240453D01*
X12811653Y16510000D01*
X12785105Y16779547D01*
X12706481Y17038736D01*
X12578802Y17277605D01*
X12406976Y17486976D01*
X12197605Y17658802D01*
X12171250Y17672889D01*
X12280000Y17672460D01*
X12382918Y17682597D01*
X12481881Y17712617D01*
X12573086Y17761367D01*
X12653027Y17826973D01*
X12718633Y17906914D01*
X12767383Y17998119D01*
X12797403Y18097082D01*
X12807540Y18200000D01*
X12805000Y18843750D01*
X12673750Y18975000D01*
X11505000Y18975000D01*
X11505000Y18955000D01*
X11355000Y18955000D01*
X11355000Y18975000D01*
X10186250Y18975000D01*
X10055000Y18843750D01*
X10052460Y18200000D01*
X10062597Y18097082D01*
X10092617Y17998119D01*
X10141367Y17906914D01*
X10206973Y17826973D01*
X10286914Y17761367D01*
X10378119Y17712617D01*
X10477082Y17682597D01*
X10580000Y17672460D01*
X10688750Y17672889D01*
X10662395Y17658802D01*
X10453024Y17486976D01*
X10281198Y17277605D01*
X10153519Y17038736D01*
X10074895Y16779547D01*
X10048347Y16510000D01*
X10074895Y16240453D01*
X10153519Y15981264D01*
X10281198Y15742395D01*
X10453024Y15533024D01*
X10662395Y15361198D01*
X10889139Y15240000D01*
X10662395Y15118802D01*
X10453024Y14946976D01*
X10281198Y14737605D01*
X10153519Y14498736D01*
X10074895Y14239547D01*
X10048347Y13970000D01*
X10074895Y13700453D01*
X10153519Y13441264D01*
X10281198Y13202395D01*
X10453024Y12993024D01*
X10662395Y12821198D01*
X10889139Y12700000D01*
X10662395Y12578802D01*
X10453024Y12406976D01*
X10281198Y12197605D01*
X10153519Y11958736D01*
X10074895Y11699547D01*
X10048347Y11430000D01*
X10074895Y11160453D01*
X10153519Y10901264D01*
X10281198Y10662395D01*
X10453024Y10453024D01*
X10662395Y10281198D01*
X10889139Y10160000D01*
X10662395Y10038802D01*
X10453024Y9866976D01*
X10281198Y9657605D01*
X10153519Y9418736D01*
X10074895Y9159547D01*
X10048347Y8890000D01*
X10074895Y8620453D01*
X10153519Y8361264D01*
X10281198Y8122395D01*
X10453024Y7913024D01*
X10662395Y7741198D01*
X10889139Y7620000D01*
X10662395Y7498802D01*
X10453024Y7326976D01*
X10281198Y7117605D01*
X10153519Y6878736D01*
X10074895Y6619547D01*
X10048347Y6350000D01*
X10074895Y6080453D01*
X10153519Y5821264D01*
X10281198Y5582395D01*
X10453024Y5373024D01*
X10662395Y5201198D01*
X10889139Y5080000D01*
X10662395Y4958802D01*
X10453024Y4786976D01*
X10281198Y4577605D01*
X10153519Y4338736D01*
X10074895Y4079547D01*
X10048347Y3810000D01*
X10074895Y3540453D01*
X10153519Y3281264D01*
X10281198Y3042395D01*
X10453024Y2833024D01*
X10662395Y2661198D01*
X10889139Y2540000D01*
X10662395Y2418802D01*
X10453024Y2246976D01*
X10281198Y2037605D01*
X10153519Y1798736D01*
X10074895Y1539547D01*
X10048347Y1270000D01*
X10074895Y1000453D01*
X10153519Y741264D01*
X10255752Y550000D01*
X1296899Y550000D01*
X1130663Y566300D01*
X996636Y606765D01*
X873018Y672494D01*
X764524Y760979D01*
X675279Y868857D01*
X608691Y992010D01*
X567289Y1125757D01*
X550000Y1290251D01*
X550000Y2540000D01*
X6288589Y2540000D01*
X6314172Y2280255D01*
X6389937Y2030491D01*
X6512972Y1800308D01*
X6678550Y1598550D01*
X6880308Y1432972D01*
X7110491Y1309937D01*
X7360255Y1234172D01*
X7554909Y1215000D01*
X7685091Y1215000D01*
X7879745Y1234172D01*
X8129509Y1309937D01*
X8359692Y1432972D01*
X8561450Y1598550D01*
X8727028Y1800308D01*
X8850063Y2030491D01*
X8925828Y2280255D01*
X8951411Y2540000D01*
X8925828Y2799745D01*
X8850063Y3049509D01*
X8727028Y3279692D01*
X8561450Y3481450D01*
X8359692Y3647028D01*
X8129509Y3770063D01*
X7879745Y3845828D01*
X7685091Y3865000D01*
X7554909Y3865000D01*
X7360255Y3845828D01*
X7110491Y3770063D01*
X6880308Y3647028D01*
X6678550Y3481450D01*
X6512972Y3279692D01*
X6389937Y3049509D01*
X6314172Y2799745D01*
X6288589Y2540000D01*
X550000Y2540000D01*
X550000Y10160000D01*
X1259920Y10160000D01*
X1280193Y9954164D01*
X1340233Y9756238D01*
X1437733Y9573829D01*
X1477806Y9525000D01*
X1437733Y9476171D01*
X1340233Y9293762D01*
X1280193Y9095836D01*
X1259920Y8890000D01*
X1280193Y8684164D01*
X1340233Y8486238D01*
X1437733Y8303829D01*
X1568946Y8143946D01*
X1728829Y8012733D01*
X1911238Y7915233D01*
X2109164Y7855193D01*
X2263422Y7840000D01*
X2816578Y7840000D01*
X2970836Y7855193D01*
X3168762Y7915233D01*
X3351171Y8012733D01*
X3511054Y8143946D01*
X3642267Y8303829D01*
X3739767Y8486238D01*
X3799807Y8684164D01*
X3820080Y8890000D01*
X3799807Y9095836D01*
X3739767Y9293762D01*
X3642267Y9476171D01*
X3602194Y9525000D01*
X3642267Y9573829D01*
X3739767Y9756238D01*
X3799807Y9954164D01*
X3820080Y10160000D01*
X3807227Y10290501D01*
X6295000Y10290501D01*
X6295000Y10029499D01*
X6345919Y9773512D01*
X6445800Y9532377D01*
X6590805Y9315362D01*
X6775362Y9130805D01*
X6992377Y8985800D01*
X7233512Y8885919D01*
X7489499Y8835000D01*
X7750501Y8835000D01*
X8006488Y8885919D01*
X8247623Y8985800D01*
X8464638Y9130805D01*
X8649195Y9315362D01*
X8794200Y9532377D01*
X8894081Y9773512D01*
X8945000Y10029499D01*
X8945000Y10290501D01*
X8894081Y10546488D01*
X8794200Y10787623D01*
X8649195Y11004638D01*
X8464638Y11189195D01*
X8247623Y11334200D01*
X8006488Y11434081D01*
X7750501Y11485000D01*
X7489499Y11485000D01*
X7233512Y11434081D01*
X6992377Y11334200D01*
X6775362Y11189195D01*
X6590805Y11004638D01*
X6445800Y10787623D01*
X6345919Y10546488D01*
X6295000Y10290501D01*
X3807227Y10290501D01*
X3799807Y10365836D01*
X3739767Y10563762D01*
X3719789Y10601138D01*
X3728633Y10611914D01*
X3777383Y10703119D01*
X3807403Y10802082D01*
X3817540Y10905000D01*
X3815000Y11223750D01*
X3683750Y11355000D01*
X2615000Y11355000D01*
X2615000Y11335000D01*
X2465000Y11335000D01*
X2465000Y11355000D01*
X1396250Y11355000D01*
X1265000Y11223750D01*
X1262460Y10905000D01*
X1272597Y10802082D01*
X1302617Y10703119D01*
X1351367Y10611914D01*
X1360211Y10601138D01*
X1340233Y10563762D01*
X1280193Y10365836D01*
X1259920Y10160000D01*
X550000Y10160000D01*
X550000Y11955000D01*
X1262460Y11955000D01*
X1265000Y11636250D01*
X1396250Y11505000D01*
X2465000Y11505000D01*
X2465000Y12348750D01*
X2615000Y12348750D01*
X2615000Y11505000D01*
X3683750Y11505000D01*
X3815000Y11636250D01*
X3817540Y11955000D01*
X3807403Y12057918D01*
X3777383Y12156881D01*
X3728633Y12248086D01*
X3663027Y12328027D01*
X3583086Y12393633D01*
X3491881Y12442383D01*
X3392918Y12472403D01*
X3290000Y12482540D01*
X2746250Y12480000D01*
X2615000Y12348750D01*
X2465000Y12348750D01*
X2333750Y12480000D01*
X1790000Y12482540D01*
X1687082Y12472403D01*
X1588119Y12442383D01*
X1496914Y12393633D01*
X1416973Y12328027D01*
X1351367Y12248086D01*
X1302617Y12156881D01*
X1272597Y12057918D01*
X1262460Y11955000D01*
X550000Y11955000D01*
X550000Y16510000D01*
X1158347Y16510000D01*
X1184895Y16240453D01*
X1263519Y15981264D01*
X1391198Y15742395D01*
X1563024Y15533024D01*
X1772395Y15361198D01*
X2011264Y15233519D01*
X2270453Y15154895D01*
X2472451Y15135000D01*
X2607549Y15135000D01*
X2809547Y15154895D01*
X3068736Y15233519D01*
X3307605Y15361198D01*
X3516976Y15533024D01*
X3688802Y15742395D01*
X3813975Y15976576D01*
X3817863Y15964432D01*
X3948550Y15728684D01*
X4122718Y15522962D01*
X4333673Y15355171D01*
X4573309Y15231760D01*
X4791146Y15165683D01*
X5005000Y15268513D01*
X5005000Y16435000D01*
X4985000Y16435000D01*
X4985000Y16585000D01*
X5005000Y16585000D01*
X5005000Y17751487D01*
X5155000Y17751487D01*
X5155000Y16585000D01*
X5175000Y16585000D01*
X5175000Y16435000D01*
X5155000Y16435000D01*
X5155000Y15268513D01*
X5368854Y15165683D01*
X5586691Y15231760D01*
X5826327Y15355171D01*
X6037282Y15522962D01*
X6211450Y15728684D01*
X6242460Y15784623D01*
X6242460Y15660000D01*
X6252597Y15557082D01*
X6282617Y15458119D01*
X6331367Y15366914D01*
X6396973Y15286973D01*
X6476914Y15221367D01*
X6568119Y15172617D01*
X6667082Y15142597D01*
X6770000Y15132460D01*
X8470000Y15132460D01*
X8572918Y15142597D01*
X8671881Y15172617D01*
X8763086Y15221367D01*
X8843027Y15286973D01*
X8908633Y15366914D01*
X8957383Y15458119D01*
X8987403Y15557082D01*
X8997540Y15660000D01*
X8997540Y17360000D01*
X8987403Y17462918D01*
X8957383Y17561881D01*
X8908633Y17653086D01*
X8843027Y17733027D01*
X8763086Y17798633D01*
X8671881Y17847383D01*
X8572918Y17877403D01*
X8470000Y17887540D01*
X6770000Y17887540D01*
X6667082Y17877403D01*
X6568119Y17847383D01*
X6476914Y17798633D01*
X6396973Y17733027D01*
X6331367Y17653086D01*
X6282617Y17561881D01*
X6252597Y17462918D01*
X6242460Y17360000D01*
X6242460Y17235377D01*
X6211450Y17291316D01*
X6037282Y17497038D01*
X5826327Y17664829D01*
X5586691Y17788240D01*
X5368854Y17854317D01*
X5155000Y17751487D01*
X5005000Y17751487D01*
X4791146Y17854317D01*
X4573309Y17788240D01*
X4333673Y17664829D01*
X4122718Y17497038D01*
X3948550Y17291316D01*
X3817863Y17055568D01*
X3813975Y17043424D01*
X3688802Y17277605D01*
X3516976Y17486976D01*
X3307605Y17658802D01*
X3068736Y17786481D01*
X2809547Y17865105D01*
X2607549Y17885000D01*
X2472451Y17885000D01*
X2270453Y17865105D01*
X2011264Y17786481D01*
X1772395Y17658802D01*
X1563024Y17486976D01*
X1391198Y17277605D01*
X1263519Y17038736D01*
X1184895Y16779547D01*
X1158347Y16510000D01*
X550000Y16510000D01*
X550000Y19023101D01*
X566300Y19189337D01*
X606765Y19323364D01*
X672494Y19446984D01*
X760978Y19555475D01*
X868857Y19644721D01*
X992010Y19711309D01*
X1125757Y19752711D01*
X1290252Y19770000D01*
X10052973Y19770000D01*
X10055000Y19256250D01*
M02*
